<?xml version="1.0" encoding="utf-8" standalone="no"?>
<!DOCTYPE svg PUBLIC "-//W3C//DTD SVG 1.1//EN"
  "http://www.w3.org/Graphics/SVG/1.1/DTD/svg11.dtd">
<svg xmlns:xlink="http://www.w3.org/1999/xlink" width="708.48pt" height="204.501562pt" viewBox="0 0 708.48 204.501562" xmlns="http://www.w3.org/2000/svg" version="1.1">
 <metadata>
  <rdf:RDF xmlns:dc="http://purl.org/dc/elements/1.1/" xmlns:cc="http://creativecommons.org/ns#" xmlns:rdf="http://www.w3.org/1999/02/22-rdf-syntax-ns#">
   <cc:Work>
    <dc:type rdf:resource="http://purl.org/dc/dcmitype/StillImage"/>
    <dc:date>2025-12-30T20:13:56.671793</dc:date>
    <dc:format>image/svg+xml</dc:format>
    <dc:creator>
     <cc:Agent>
      <dc:title>Matplotlib v3.10.8, https://matplotlib.org/</dc:title>
     </cc:Agent>
    </dc:creator>
   </cc:Work>
  </rdf:RDF>
 </metadata>
 <defs>
  <style type="text/css">*{stroke-linejoin: round; stroke-linecap: butt}</style>
 </defs>
 <g id="figure_1">
  <g id="patch_1">
   <path d="M 0 204.501562
L 708.48 204.501562
L 708.48 0
L 0 0
z
" style="fill: #ffffff"/>
  </g>
  <g id="axes_1">
   <g id="patch_2">
    <path d="M 22.288696 174.457277
L 120.365217 174.457277
L 120.365217 60.235848
L 22.288696 60.235848
z
" clip-path="url(#pdb304259de)" style="fill: #1a1f71; stroke: #ffffff; stroke-width: 2; stroke-linejoin: miter"/>
   </g>
   <g id="patch_3">
    <path d="M 135.453913 174.457277
L 233.530435 174.457277
L 233.530435 60.235848
L 135.453913 60.235848
z
" clip-path="url(#pdb304259de)" style="fill: #eb001b; stroke: #ffffff; stroke-width: 2; stroke-linejoin: miter"/>
   </g>
   <g id="patch_4">
    <path d="M 248.61913 174.457277
L 346.695652 174.457277
L 346.695652 60.235848
L 248.61913 60.235848
z
" clip-path="url(#pdb304259de)" style="fill: #006fcf; stroke: #ffffff; stroke-width: 2; stroke-linejoin: miter"/>
   </g>
   <g id="patch_5">
    <path d="M 361.784348 174.457277
L 459.86087 174.457277
L 459.86087 60.235848
L 361.784348 60.235848
z
" clip-path="url(#pdb304259de)" style="fill: #ff6000; stroke: #ffffff; stroke-width: 2; stroke-linejoin: miter"/>
   </g>
   <g id="patch_6">
    <path d="M 474.949565 174.457277
L 573.026087 174.457277
L 573.026087 60.235848
L 474.949565 60.235848
z
" clip-path="url(#pdb304259de)" style="fill: #0b4ea2; stroke: #ffffff; stroke-width: 2; stroke-linejoin: miter"/>
   </g>
   <g id="patch_7">
    <path d="M 588.114783 174.457277
L 686.191304 174.457277
L 686.191304 60.235848
L 588.114783 60.235848
z
" clip-path="url(#pdb304259de)" style="fill: #de2218; stroke: #ffffff; stroke-width: 2; stroke-linejoin: miter"/>
   </g>
   <g id="text_1">
    <!-- VISA -->
    <g style="fill: #ffffff" transform="translate(58.489613 120.197969) scale(0.11 -0.11)">
     <defs>
      <path id="Arial-BoldMT-56" d="M 1634 0
L -3 4581
L 1000 4581
L 2159 1191
L 3281 4581
L 4263 4581
L 2622 0
L 1634 0
z
" transform="scale(0.015625)"/>
      <path id="Arial-BoldMT-49" d="M 438 0
L 438 4581
L 1363 4581
L 1363 0
L 438 0
z
" transform="scale(0.015625)"/>
      <path id="Arial-BoldMT-53" d="M 231 1491
L 1131 1578
Q 1213 1125 1461 912
Q 1709 700 2131 700
Q 2578 700 2804 889
Q 3031 1078 3031 1331
Q 3031 1494 2936 1608
Q 2841 1722 2603 1806
Q 2441 1863 1863 2006
Q 1119 2191 819 2459
Q 397 2838 397 3381
Q 397 3731 595 4036
Q 794 4341 1167 4500
Q 1541 4659 2069 4659
Q 2931 4659 3367 4281
Q 3803 3903 3825 3272
L 2900 3231
Q 2841 3584 2645 3739
Q 2450 3894 2059 3894
Q 1656 3894 1428 3728
Q 1281 3622 1281 3444
Q 1281 3281 1419 3166
Q 1594 3019 2269 2859
Q 2944 2700 3267 2529
Q 3591 2359 3773 2064
Q 3956 1769 3956 1334
Q 3956 941 3737 597
Q 3519 253 3119 86
Q 2719 -81 2122 -81
Q 1253 -81 787 320
Q 322 722 231 1491
z
" transform="scale(0.015625)"/>
      <path id="Arial-BoldMT-41" d="M 4597 0
L 3591 0
L 3191 1041
L 1359 1041
L 981 0
L 0 0
L 1784 4581
L 2763 4581
L 4597 0
z
M 2894 1813
L 2263 3513
L 1644 1813
L 2894 1813
z
" transform="scale(0.015625)"/>
     </defs>
     <use xlink:href="#Arial-BoldMT-56"/>
     <use xlink:href="#Arial-BoldMT-49" transform="translate(66.699219 0)"/>
     <use xlink:href="#Arial-BoldMT-53" transform="translate(94.482422 0)"/>
     <use xlink:href="#Arial-BoldMT-41" transform="translate(161.181641 0)"/>
    </g>
   </g>
   <g id="text_2">
    <!-- Mastercard -->
    <g style="fill: #ffffff" transform="translate(155.146236 120.197969) scale(0.11 -0.11)">
     <defs>
      <path id="Arial-BoldMT-4d" d="M 453 0
L 453 4581
L 1838 4581
L 2669 1456
L 3491 4581
L 4878 4581
L 4878 0
L 4019 0
L 4019 3606
L 3109 0
L 2219 0
L 1313 3606
L 1313 0
L 453 0
z
" transform="scale(0.015625)"/>
      <path id="Arial-BoldMT-61" d="M 1116 2306
L 319 2450
Q 453 2931 781 3162
Q 1109 3394 1756 3394
Q 2344 3394 2631 3255
Q 2919 3116 3036 2902
Q 3153 2688 3153 2116
L 3144 1091
Q 3144 653 3186 445
Q 3228 238 3344 0
L 2475 0
Q 2441 88 2391 259
Q 2369 338 2359 363
Q 2134 144 1878 34
Q 1622 -75 1331 -75
Q 819 -75 523 203
Q 228 481 228 906
Q 228 1188 362 1408
Q 497 1628 739 1745
Q 981 1863 1438 1950
Q 2053 2066 2291 2166
L 2291 2253
Q 2291 2506 2166 2614
Q 2041 2722 1694 2722
Q 1459 2722 1328 2630
Q 1197 2538 1116 2306
z
M 2291 1594
Q 2122 1538 1756 1459
Q 1391 1381 1278 1306
Q 1106 1184 1106 997
Q 1106 813 1243 678
Q 1381 544 1594 544
Q 1831 544 2047 700
Q 2206 819 2256 991
Q 2291 1103 2291 1419
L 2291 1594
z
" transform="scale(0.015625)"/>
      <path id="Arial-BoldMT-73" d="M 150 947
L 1031 1081
Q 1088 825 1259 692
Q 1431 559 1741 559
Q 2081 559 2253 684
Q 2369 772 2369 919
Q 2369 1019 2306 1084
Q 2241 1147 2013 1200
Q 950 1434 666 1628
Q 272 1897 272 2375
Q 272 2806 612 3100
Q 953 3394 1669 3394
Q 2350 3394 2681 3172
Q 3013 2950 3138 2516
L 2309 2363
Q 2256 2556 2107 2659
Q 1959 2763 1684 2763
Q 1338 2763 1188 2666
Q 1088 2597 1088 2488
Q 1088 2394 1175 2328
Q 1294 2241 1995 2081
Q 2697 1922 2975 1691
Q 3250 1456 3250 1038
Q 3250 581 2869 253
Q 2488 -75 1741 -75
Q 1063 -75 667 200
Q 272 475 150 947
z
" transform="scale(0.015625)"/>
      <path id="Arial-BoldMT-74" d="M 1981 3319
L 1981 2619
L 1381 2619
L 1381 1281
Q 1381 875 1398 808
Q 1416 741 1477 697
Q 1538 653 1625 653
Q 1747 653 1978 738
L 2053 56
Q 1747 -75 1359 -75
Q 1122 -75 931 4
Q 741 84 652 211
Q 563 338 528 553
Q 500 706 500 1172
L 500 2619
L 97 2619
L 97 3319
L 500 3319
L 500 3978
L 1381 4491
L 1381 3319
L 1981 3319
z
" transform="scale(0.015625)"/>
      <path id="Arial-BoldMT-65" d="M 2381 1056
L 3256 909
Q 3088 428 2723 176
Q 2359 -75 1813 -75
Q 947 -75 531 491
Q 203 944 203 1634
Q 203 2459 634 2926
Q 1066 3394 1725 3394
Q 2466 3394 2894 2905
Q 3322 2416 3303 1406
L 1103 1406
Q 1113 1016 1316 798
Q 1519 581 1822 581
Q 2028 581 2168 693
Q 2309 806 2381 1056
z
M 2431 1944
Q 2422 2325 2234 2523
Q 2047 2722 1778 2722
Q 1491 2722 1303 2513
Q 1116 2303 1119 1944
L 2431 1944
z
" transform="scale(0.015625)"/>
      <path id="Arial-BoldMT-72" d="M 1300 0
L 422 0
L 422 3319
L 1238 3319
L 1238 2847
Q 1447 3181 1614 3287
Q 1781 3394 1994 3394
Q 2294 3394 2572 3228
L 2300 2463
Q 2078 2606 1888 2606
Q 1703 2606 1575 2504
Q 1447 2403 1373 2137
Q 1300 1872 1300 1025
L 1300 0
z
" transform="scale(0.015625)"/>
      <path id="Arial-BoldMT-63" d="M 3353 2338
L 2488 2181
Q 2444 2441 2289 2572
Q 2134 2703 1888 2703
Q 1559 2703 1364 2476
Q 1169 2250 1169 1719
Q 1169 1128 1367 884
Q 1566 641 1900 641
Q 2150 641 2309 783
Q 2469 925 2534 1272
L 3397 1125
Q 3263 531 2881 228
Q 2500 -75 1859 -75
Q 1131 -75 698 384
Q 266 844 266 1656
Q 266 2478 700 2936
Q 1134 3394 1875 3394
Q 2481 3394 2839 3133
Q 3197 2872 3353 2338
z
" transform="scale(0.015625)"/>
      <path id="Arial-BoldMT-64" d="M 3503 0
L 2688 0
L 2688 488
Q 2484 203 2207 64
Q 1931 -75 1650 -75
Q 1078 -75 670 386
Q 263 847 263 1672
Q 263 2516 659 2955
Q 1056 3394 1663 3394
Q 2219 3394 2625 2931
L 2625 4581
L 3503 4581
L 3503 0
z
M 1159 1731
Q 1159 1200 1306 963
Q 1519 619 1900 619
Q 2203 619 2415 876
Q 2628 1134 2628 1647
Q 2628 2219 2422 2470
Q 2216 2722 1894 2722
Q 1581 2722 1370 2473
Q 1159 2225 1159 1731
z
" transform="scale(0.015625)"/>
     </defs>
     <use xlink:href="#Arial-BoldMT-4d"/>
     <use xlink:href="#Arial-BoldMT-61" transform="translate(83.300781 0)"/>
     <use xlink:href="#Arial-BoldMT-73" transform="translate(138.916016 0)"/>
     <use xlink:href="#Arial-BoldMT-74" transform="translate(194.53125 0)"/>
     <use xlink:href="#Arial-BoldMT-65" transform="translate(227.832031 0)"/>
     <use xlink:href="#Arial-BoldMT-72" transform="translate(283.447266 0)"/>
     <use xlink:href="#Arial-BoldMT-63" transform="translate(322.363281 0)"/>
     <use xlink:href="#Arial-BoldMT-61" transform="translate(377.978516 0)"/>
     <use xlink:href="#Arial-BoldMT-72" transform="translate(433.59375 0)"/>
     <use xlink:href="#Arial-BoldMT-64" transform="translate(472.509766 0)"/>
    </g>
   </g>
   <g id="text_3">
    <!-- AMEX -->
    <g style="fill: #ffffff" transform="translate(281.766688 120.197969) scale(0.11 -0.11)">
     <defs>
      <path id="Arial-BoldMT-45" d="M 466 0
L 466 4581
L 3863 4581
L 3863 3806
L 1391 3806
L 1391 2791
L 3691 2791
L 3691 2019
L 1391 2019
L 1391 772
L 3950 772
L 3950 0
L 466 0
z
" transform="scale(0.015625)"/>
      <path id="Arial-BoldMT-58" d="M 0 0
L 1566 2391
L 147 4581
L 1228 4581
L 2147 3109
L 3047 4581
L 4119 4581
L 2694 2356
L 4259 0
L 3144 0
L 2128 1584
L 1109 0
L 0 0
z
" transform="scale(0.015625)"/>
     </defs>
     <use xlink:href="#Arial-BoldMT-41"/>
     <use xlink:href="#Arial-BoldMT-4d" transform="translate(72.216797 0)"/>
     <use xlink:href="#Arial-BoldMT-45" transform="translate(155.517578 0)"/>
     <use xlink:href="#Arial-BoldMT-58" transform="translate(222.216797 0)"/>
    </g>
   </g>
   <g id="text_4">
    <!-- Discover -->
    <g style="fill: #ffffff" transform="translate(387.588546 120.197969) scale(0.11 -0.11)">
     <defs>
      <path id="Arial-BoldMT-44" d="M 463 4581
L 2153 4581
Q 2725 4581 3025 4494
Q 3428 4375 3715 4072
Q 4003 3769 4153 3330
Q 4303 2891 4303 2247
Q 4303 1681 4163 1272
Q 3991 772 3672 463
Q 3431 228 3022 97
Q 2716 0 2203 0
L 463 0
L 463 4581
z
M 1388 3806
L 1388 772
L 2078 772
Q 2466 772 2638 816
Q 2863 872 3011 1006
Q 3159 1141 3253 1448
Q 3347 1756 3347 2288
Q 3347 2819 3253 3103
Q 3159 3388 2990 3547
Q 2822 3706 2563 3763
Q 2369 3806 1803 3806
L 1388 3806
z
" transform="scale(0.015625)"/>
      <path id="Arial-BoldMT-69" d="M 459 3769
L 459 4581
L 1338 4581
L 1338 3769
L 459 3769
z
M 459 0
L 459 3319
L 1338 3319
L 1338 0
L 459 0
z
" transform="scale(0.015625)"/>
      <path id="Arial-BoldMT-6f" d="M 256 1706
Q 256 2144 472 2553
Q 688 2963 1083 3178
Q 1478 3394 1966 3394
Q 2719 3394 3200 2905
Q 3681 2416 3681 1669
Q 3681 916 3195 420
Q 2709 -75 1972 -75
Q 1516 -75 1102 131
Q 688 338 472 736
Q 256 1134 256 1706
z
M 1156 1659
Q 1156 1166 1390 903
Q 1625 641 1969 641
Q 2313 641 2545 903
Q 2778 1166 2778 1666
Q 2778 2153 2545 2415
Q 2313 2678 1969 2678
Q 1625 2678 1390 2415
Q 1156 2153 1156 1659
z
" transform="scale(0.015625)"/>
      <path id="Arial-BoldMT-76" d="M 1372 0
L 34 3319
L 956 3319
L 1581 1625
L 1763 1059
Q 1834 1275 1853 1344
Q 1897 1484 1947 1625
L 2578 3319
L 3481 3319
L 2163 0
L 1372 0
z
" transform="scale(0.015625)"/>
     </defs>
     <use xlink:href="#Arial-BoldMT-44"/>
     <use xlink:href="#Arial-BoldMT-69" transform="translate(72.216797 0)"/>
     <use xlink:href="#Arial-BoldMT-73" transform="translate(100 0)"/>
     <use xlink:href="#Arial-BoldMT-63" transform="translate(155.615234 0)"/>
     <use xlink:href="#Arial-BoldMT-6f" transform="translate(211.230469 0)"/>
     <use xlink:href="#Arial-BoldMT-76" transform="translate(272.314453 0)"/>
     <use xlink:href="#Arial-BoldMT-65" transform="translate(327.929688 0)"/>
     <use xlink:href="#Arial-BoldMT-72" transform="translate(383.544922 0)"/>
    </g>
   </g>
   <g id="text_5">
    <!-- JCB -->
    <g style="fill: #ffffff" transform="translate(512.985248 120.197969) scale(0.11 -0.11)">
     <defs>
      <path id="Arial-BoldMT-4a" d="M 2119 4581
L 3041 4581
L 3041 1681
Q 3041 1113 2941 806
Q 2806 406 2453 164
Q 2100 -78 1522 -78
Q 844 -78 478 301
Q 113 681 109 1416
L 981 1516
Q 997 1122 1097 959
Q 1247 713 1553 713
Q 1863 713 1991 889
Q 2119 1066 2119 1622
L 2119 4581
z
" transform="scale(0.015625)"/>
      <path id="Arial-BoldMT-43" d="M 3397 1684
L 4294 1400
Q 4088 650 3608 286
Q 3128 -78 2391 -78
Q 1478 -78 890 545
Q 303 1169 303 2250
Q 303 3394 893 4026
Q 1484 4659 2447 4659
Q 3288 4659 3813 4163
Q 4125 3869 4281 3319
L 3366 3100
Q 3284 3456 3026 3662
Q 2769 3869 2400 3869
Q 1891 3869 1573 3503
Q 1256 3138 1256 2319
Q 1256 1450 1568 1081
Q 1881 713 2381 713
Q 2750 713 3015 947
Q 3281 1181 3397 1684
z
" transform="scale(0.015625)"/>
      <path id="Arial-BoldMT-42" d="M 469 4581
L 2300 4581
Q 2844 4581 3111 4536
Q 3378 4491 3589 4347
Q 3800 4203 3940 3964
Q 4081 3725 4081 3428
Q 4081 3106 3907 2837
Q 3734 2569 3438 2434
Q 3856 2313 4081 2019
Q 4306 1725 4306 1328
Q 4306 1016 4161 720
Q 4016 425 3764 248
Q 3513 72 3144 31
Q 2913 6 2028 0
L 469 0
L 469 4581
z
M 1394 3819
L 1394 2759
L 2000 2759
Q 2541 2759 2672 2775
Q 2909 2803 3045 2939
Q 3181 3075 3181 3297
Q 3181 3509 3064 3642
Q 2947 3775 2716 3803
Q 2578 3819 1925 3819
L 1394 3819
z
M 1394 1997
L 1394 772
L 2250 772
Q 2750 772 2884 800
Q 3091 838 3220 983
Q 3350 1128 3350 1372
Q 3350 1578 3250 1722
Q 3150 1866 2961 1931
Q 2772 1997 2141 1997
L 1394 1997
z
" transform="scale(0.015625)"/>
     </defs>
     <use xlink:href="#Arial-BoldMT-4a"/>
     <use xlink:href="#Arial-BoldMT-43" transform="translate(55.615234 0)"/>
     <use xlink:href="#Arial-BoldMT-42" transform="translate(127.832031 0)"/>
    </g>
   </g>
   <g id="text_6">
    <!-- UnionPay -->
    <g style="fill: #ffffff" transform="translate(611.78945 120.125781) scale(0.11 -0.11)">
     <defs>
      <path id="Arial-BoldMT-55" d="M 459 4581
L 1384 4581
L 1384 2100
Q 1384 1509 1419 1334
Q 1478 1053 1701 883
Q 1925 713 2313 713
Q 2706 713 2906 873
Q 3106 1034 3147 1268
Q 3188 1503 3188 2047
L 3188 4581
L 4113 4581
L 4113 2175
Q 4113 1350 4038 1009
Q 3963 669 3761 434
Q 3559 200 3221 61
Q 2884 -78 2341 -78
Q 1684 -78 1345 73
Q 1006 225 809 467
Q 613 709 550 975
Q 459 1369 459 2138
L 459 4581
z
" transform="scale(0.015625)"/>
      <path id="Arial-BoldMT-6e" d="M 3478 0
L 2600 0
L 2600 1694
Q 2600 2231 2544 2389
Q 2488 2547 2361 2634
Q 2234 2722 2056 2722
Q 1828 2722 1647 2597
Q 1466 2472 1398 2265
Q 1331 2059 1331 1503
L 1331 0
L 453 0
L 453 3319
L 1269 3319
L 1269 2831
Q 1703 3394 2363 3394
Q 2653 3394 2893 3289
Q 3134 3184 3257 3021
Q 3381 2859 3429 2653
Q 3478 2447 3478 2063
L 3478 0
z
" transform="scale(0.015625)"/>
      <path id="Arial-BoldMT-50" d="M 466 0
L 466 4581
L 1950 4581
Q 2794 4581 3050 4513
Q 3444 4409 3709 4064
Q 3975 3719 3975 3172
Q 3975 2750 3822 2462
Q 3669 2175 3433 2011
Q 3197 1847 2953 1794
Q 2622 1728 1994 1728
L 1391 1728
L 1391 0
L 466 0
z
M 1391 3806
L 1391 2506
L 1897 2506
Q 2444 2506 2628 2578
Q 2813 2650 2917 2803
Q 3022 2956 3022 3159
Q 3022 3409 2875 3571
Q 2728 3734 2503 3775
Q 2338 3806 1838 3806
L 1391 3806
z
" transform="scale(0.015625)"/>
      <path id="Arial-BoldMT-79" d="M 44 3319
L 978 3319
L 1772 963
L 2547 3319
L 3456 3319
L 2284 125
L 2075 -453
Q 1959 -744 1854 -897
Q 1750 -1050 1614 -1145
Q 1478 -1241 1279 -1294
Q 1081 -1347 831 -1347
Q 578 -1347 334 -1294
L 256 -606
Q 463 -647 628 -647
Q 934 -647 1081 -467
Q 1228 -288 1306 -9
L 44 3319
z
" transform="scale(0.015625)"/>
     </defs>
     <use xlink:href="#Arial-BoldMT-55"/>
     <use xlink:href="#Arial-BoldMT-6e" transform="translate(72.216797 0)"/>
     <use xlink:href="#Arial-BoldMT-69" transform="translate(133.300781 0)"/>
     <use xlink:href="#Arial-BoldMT-6f" transform="translate(161.083984 0)"/>
     <use xlink:href="#Arial-BoldMT-6e" transform="translate(222.167969 0)"/>
     <use xlink:href="#Arial-BoldMT-50" transform="translate(283.251953 0)"/>
     <use xlink:href="#Arial-BoldMT-61" transform="translate(349.951172 0)"/>
     <use xlink:href="#Arial-BoldMT-79" transform="translate(405.566406 0)"/>
    </g>
   </g>
   <g id="text_7">
    <!-- Supported Card Networks -->
    <g style="fill: #262626" transform="translate(267.899375 17.391563) scale(0.14 -0.14)">
     <defs>
      <path id="Arial-BoldMT-75" d="M 2644 0
L 2644 497
Q 2463 231 2167 78
Q 1872 -75 1544 -75
Q 1209 -75 943 72
Q 678 219 559 484
Q 441 750 441 1219
L 441 3319
L 1319 3319
L 1319 1794
Q 1319 1094 1367 936
Q 1416 778 1544 686
Q 1672 594 1869 594
Q 2094 594 2272 717
Q 2450 841 2515 1023
Q 2581 1206 2581 1919
L 2581 3319
L 3459 3319
L 3459 0
L 2644 0
z
" transform="scale(0.015625)"/>
      <path id="Arial-BoldMT-70" d="M 434 3319
L 1253 3319
L 1253 2831
Q 1413 3081 1684 3237
Q 1956 3394 2288 3394
Q 2866 3394 3269 2941
Q 3672 2488 3672 1678
Q 3672 847 3265 386
Q 2859 -75 2281 -75
Q 2006 -75 1782 34
Q 1559 144 1313 409
L 1313 -1263
L 434 -1263
L 434 3319
z
M 1303 1716
Q 1303 1156 1525 889
Q 1747 622 2066 622
Q 2372 622 2575 867
Q 2778 1113 2778 1672
Q 2778 2194 2568 2447
Q 2359 2700 2050 2700
Q 1728 2700 1515 2451
Q 1303 2203 1303 1716
z
" transform="scale(0.015625)"/>
      <path id="Arial-BoldMT-20" transform="scale(0.015625)"/>
      <path id="Arial-BoldMT-4e" d="M 475 0
L 475 4581
L 1375 4581
L 3250 1522
L 3250 4581
L 4109 4581
L 4109 0
L 3181 0
L 1334 2988
L 1334 0
L 475 0
z
" transform="scale(0.015625)"/>
      <path id="Arial-BoldMT-77" d="M 1078 0
L 28 3319
L 881 3319
L 1503 1144
L 2075 3319
L 2922 3319
L 3475 1144
L 4109 3319
L 4975 3319
L 3909 0
L 3066 0
L 2494 2134
L 1931 0
L 1078 0
z
" transform="scale(0.015625)"/>
      <path id="Arial-BoldMT-6b" d="M 428 0
L 428 4581
L 1306 4581
L 1306 2150
L 2334 3319
L 3416 3319
L 2281 2106
L 3497 0
L 2550 0
L 1716 1491
L 1306 1063
L 1306 0
L 428 0
z
" transform="scale(0.015625)"/>
     </defs>
     <use xlink:href="#Arial-BoldMT-53"/>
     <use xlink:href="#Arial-BoldMT-75" transform="translate(66.699219 0)"/>
     <use xlink:href="#Arial-BoldMT-70" transform="translate(127.783203 0)"/>
     <use xlink:href="#Arial-BoldMT-70" transform="translate(188.867188 0)"/>
     <use xlink:href="#Arial-BoldMT-6f" transform="translate(249.951172 0)"/>
     <use xlink:href="#Arial-BoldMT-72" transform="translate(311.035156 0)"/>
     <use xlink:href="#Arial-BoldMT-74" transform="translate(349.951172 0)"/>
     <use xlink:href="#Arial-BoldMT-65" transform="translate(383.251953 0)"/>
     <use xlink:href="#Arial-BoldMT-64" transform="translate(438.867188 0)"/>
     <use xlink:href="#Arial-BoldMT-20" transform="translate(499.951172 0)"/>
     <use xlink:href="#Arial-BoldMT-43" transform="translate(527.734375 0)"/>
     <use xlink:href="#Arial-BoldMT-61" transform="translate(599.951172 0)"/>
     <use xlink:href="#Arial-BoldMT-72" transform="translate(655.566406 0)"/>
     <use xlink:href="#Arial-BoldMT-64" transform="translate(694.482422 0)"/>
     <use xlink:href="#Arial-BoldMT-20" transform="translate(755.566406 0)"/>
     <use xlink:href="#Arial-BoldMT-4e" transform="translate(783.349609 0)"/>
     <use xlink:href="#Arial-BoldMT-65" transform="translate(855.566406 0)"/>
     <use xlink:href="#Arial-BoldMT-74" transform="translate(911.181641 0)"/>
     <use xlink:href="#Arial-BoldMT-77" transform="translate(944.482422 0)"/>
     <use xlink:href="#Arial-BoldMT-6f" transform="translate(1022.265625 0)"/>
     <use xlink:href="#Arial-BoldMT-72" transform="translate(1083.349609 0)"/>
     <use xlink:href="#Arial-BoldMT-6b" transform="translate(1122.265625 0)"/>
     <use xlink:href="#Arial-BoldMT-73" transform="translate(1177.880859 0)"/>
    </g>
   </g>
  </g>
 </g>
 <defs>
  <clipPath id="pdb304259de">
   <rect x="7.2" y="37.391563" width="694.08" height="159.91"/>
  </clipPath>
 </defs>
</svg>
