<?xml version="1.0" encoding="utf-8" standalone="no"?>
<!DOCTYPE svg PUBLIC "-//W3C//DTD SVG 1.1//EN"
  "http://www.w3.org/Graphics/SVG/1.1/DTD/svg11.dtd">
<svg xmlns:xlink="http://www.w3.org/1999/xlink" width="708.451875pt" height="420.139687pt" viewBox="0 0 708.451875 420.139687" xmlns="http://www.w3.org/2000/svg" version="1.1">
 <metadata>
  <rdf:RDF xmlns:dc="http://purl.org/dc/elements/1.1/" xmlns:cc="http://creativecommons.org/ns#" xmlns:rdf="http://www.w3.org/1999/02/22-rdf-syntax-ns#">
   <cc:Work>
    <dc:type rdf:resource="http://purl.org/dc/dcmitype/StillImage"/>
    <dc:date>2025-12-30T20:13:56.631290</dc:date>
    <dc:format>image/svg+xml</dc:format>
    <dc:creator>
     <cc:Agent>
      <dc:title>Matplotlib v3.10.8, https://matplotlib.org/</dc:title>
     </cc:Agent>
    </dc:creator>
   </cc:Work>
  </rdf:RDF>
 </metadata>
 <defs>
  <style type="text/css">*{stroke-linejoin: round; stroke-linecap: butt}</style>
 </defs>
 <g id="figure_1">
  <g id="patch_1">
   <path d="M 0 420.139687
L 708.451875 420.139687
L 708.451875 0
L 0 0
z
" style="fill: #ffffff"/>
  </g>
  <g id="axes_1">
   <g id="patch_2">
    <path d="M 45.980625 398.482188
L 701.251875 398.482188
L 701.251875 23.220937
L 45.980625 23.220937
z
" style="fill: #ffffff"/>
   </g>
   <g id="matplotlib.axis_1">
    <g id="xtick_1">
     <g id="line2d_1">
      <path d="M 152.986199 398.482188
L 152.986199 23.220937
" clip-path="url(#pd8248ce80b)" style="fill: none; stroke: #cccccc; stroke-width: 0.8; stroke-linecap: round"/>
     </g>
     <g id="line2d_2"/>
     <g id="text_1">
      <!-- Parse -->
      <g style="fill: #262626" transform="translate(136.639012 410.571562) scale(0.12 -0.12)">
       <defs>
        <path id="Arial-BoldMT-50" d="M 466 0
L 466 4581
L 1950 4581
Q 2794 4581 3050 4513
Q 3444 4409 3709 4064
Q 3975 3719 3975 3172
Q 3975 2750 3822 2462
Q 3669 2175 3433 2011
Q 3197 1847 2953 1794
Q 2622 1728 1994 1728
L 1391 1728
L 1391 0
L 466 0
z
M 1391 3806
L 1391 2506
L 1897 2506
Q 2444 2506 2628 2578
Q 2813 2650 2917 2803
Q 3022 2956 3022 3159
Q 3022 3409 2875 3571
Q 2728 3734 2503 3775
Q 2338 3806 1838 3806
L 1391 3806
z
" transform="scale(0.015625)"/>
        <path id="Arial-BoldMT-61" d="M 1116 2306
L 319 2450
Q 453 2931 781 3162
Q 1109 3394 1756 3394
Q 2344 3394 2631 3255
Q 2919 3116 3036 2902
Q 3153 2688 3153 2116
L 3144 1091
Q 3144 653 3186 445
Q 3228 238 3344 0
L 2475 0
Q 2441 88 2391 259
Q 2369 338 2359 363
Q 2134 144 1878 34
Q 1622 -75 1331 -75
Q 819 -75 523 203
Q 228 481 228 906
Q 228 1188 362 1408
Q 497 1628 739 1745
Q 981 1863 1438 1950
Q 2053 2066 2291 2166
L 2291 2253
Q 2291 2506 2166 2614
Q 2041 2722 1694 2722
Q 1459 2722 1328 2630
Q 1197 2538 1116 2306
z
M 2291 1594
Q 2122 1538 1756 1459
Q 1391 1381 1278 1306
Q 1106 1184 1106 997
Q 1106 813 1243 678
Q 1381 544 1594 544
Q 1831 544 2047 700
Q 2206 819 2256 991
Q 2291 1103 2291 1419
L 2291 1594
z
" transform="scale(0.015625)"/>
        <path id="Arial-BoldMT-72" d="M 1300 0
L 422 0
L 422 3319
L 1238 3319
L 1238 2847
Q 1447 3181 1614 3287
Q 1781 3394 1994 3394
Q 2294 3394 2572 3228
L 2300 2463
Q 2078 2606 1888 2606
Q 1703 2606 1575 2504
Q 1447 2403 1373 2137
Q 1300 1872 1300 1025
L 1300 0
z
" transform="scale(0.015625)"/>
        <path id="Arial-BoldMT-73" d="M 150 947
L 1031 1081
Q 1088 825 1259 692
Q 1431 559 1741 559
Q 2081 559 2253 684
Q 2369 772 2369 919
Q 2369 1019 2306 1084
Q 2241 1147 2013 1200
Q 950 1434 666 1628
Q 272 1897 272 2375
Q 272 2806 612 3100
Q 953 3394 1669 3394
Q 2350 3394 2681 3172
Q 3013 2950 3138 2516
L 2309 2363
Q 2256 2556 2107 2659
Q 1959 2763 1684 2763
Q 1338 2763 1188 2666
Q 1088 2597 1088 2488
Q 1088 2394 1175 2328
Q 1294 2241 1995 2081
Q 2697 1922 2975 1691
Q 3250 1456 3250 1038
Q 3250 581 2869 253
Q 2488 -75 1741 -75
Q 1063 -75 667 200
Q 272 475 150 947
z
" transform="scale(0.015625)"/>
        <path id="Arial-BoldMT-65" d="M 2381 1056
L 3256 909
Q 3088 428 2723 176
Q 2359 -75 1813 -75
Q 947 -75 531 491
Q 203 944 203 1634
Q 203 2459 634 2926
Q 1066 3394 1725 3394
Q 2466 3394 2894 2905
Q 3322 2416 3303 1406
L 1103 1406
Q 1113 1016 1316 798
Q 1519 581 1822 581
Q 2028 581 2168 693
Q 2309 806 2381 1056
z
M 2431 1944
Q 2422 2325 2234 2523
Q 2047 2722 1778 2722
Q 1491 2722 1303 2513
Q 1116 2303 1119 1944
L 2431 1944
z
" transform="scale(0.015625)"/>
       </defs>
       <use xlink:href="#Arial-BoldMT-50"/>
       <use xlink:href="#Arial-BoldMT-61" transform="translate(66.699219 0)"/>
       <use xlink:href="#Arial-BoldMT-72" transform="translate(122.314453 0)"/>
       <use xlink:href="#Arial-BoldMT-73" transform="translate(161.230469 0)"/>
       <use xlink:href="#Arial-BoldMT-65" transform="translate(216.845703 0)"/>
      </g>
     </g>
    </g>
    <g id="xtick_2">
     <g id="line2d_3">
      <path d="M 373.61625 398.482188
L 373.61625 23.220937
" clip-path="url(#pd8248ce80b)" style="fill: none; stroke: #cccccc; stroke-width: 0.8; stroke-linecap: round"/>
     </g>
     <g id="line2d_4"/>
     <g id="text_2">
      <!-- Build -->
      <g style="fill: #262626" transform="translate(358.62 410.571562) scale(0.12 -0.12)">
       <defs>
        <path id="Arial-BoldMT-42" d="M 469 4581
L 2300 4581
Q 2844 4581 3111 4536
Q 3378 4491 3589 4347
Q 3800 4203 3940 3964
Q 4081 3725 4081 3428
Q 4081 3106 3907 2837
Q 3734 2569 3438 2434
Q 3856 2313 4081 2019
Q 4306 1725 4306 1328
Q 4306 1016 4161 720
Q 4016 425 3764 248
Q 3513 72 3144 31
Q 2913 6 2028 0
L 469 0
L 469 4581
z
M 1394 3819
L 1394 2759
L 2000 2759
Q 2541 2759 2672 2775
Q 2909 2803 3045 2939
Q 3181 3075 3181 3297
Q 3181 3509 3064 3642
Q 2947 3775 2716 3803
Q 2578 3819 1925 3819
L 1394 3819
z
M 1394 1997
L 1394 772
L 2250 772
Q 2750 772 2884 800
Q 3091 838 3220 983
Q 3350 1128 3350 1372
Q 3350 1578 3250 1722
Q 3150 1866 2961 1931
Q 2772 1997 2141 1997
L 1394 1997
z
" transform="scale(0.015625)"/>
        <path id="Arial-BoldMT-75" d="M 2644 0
L 2644 497
Q 2463 231 2167 78
Q 1872 -75 1544 -75
Q 1209 -75 943 72
Q 678 219 559 484
Q 441 750 441 1219
L 441 3319
L 1319 3319
L 1319 1794
Q 1319 1094 1367 936
Q 1416 778 1544 686
Q 1672 594 1869 594
Q 2094 594 2272 717
Q 2450 841 2515 1023
Q 2581 1206 2581 1919
L 2581 3319
L 3459 3319
L 3459 0
L 2644 0
z
" transform="scale(0.015625)"/>
        <path id="Arial-BoldMT-69" d="M 459 3769
L 459 4581
L 1338 4581
L 1338 3769
L 459 3769
z
M 459 0
L 459 3319
L 1338 3319
L 1338 0
L 459 0
z
" transform="scale(0.015625)"/>
        <path id="Arial-BoldMT-6c" d="M 459 0
L 459 4581
L 1338 4581
L 1338 0
L 459 0
z
" transform="scale(0.015625)"/>
        <path id="Arial-BoldMT-64" d="M 3503 0
L 2688 0
L 2688 488
Q 2484 203 2207 64
Q 1931 -75 1650 -75
Q 1078 -75 670 386
Q 263 847 263 1672
Q 263 2516 659 2955
Q 1056 3394 1663 3394
Q 2219 3394 2625 2931
L 2625 4581
L 3503 4581
L 3503 0
z
M 1159 1731
Q 1159 1200 1306 963
Q 1519 619 1900 619
Q 2203 619 2415 876
Q 2628 1134 2628 1647
Q 2628 2219 2422 2470
Q 2216 2722 1894 2722
Q 1581 2722 1370 2473
Q 1159 2225 1159 1731
z
" transform="scale(0.015625)"/>
       </defs>
       <use xlink:href="#Arial-BoldMT-42"/>
       <use xlink:href="#Arial-BoldMT-75" transform="translate(72.216797 0)"/>
       <use xlink:href="#Arial-BoldMT-69" transform="translate(133.300781 0)"/>
       <use xlink:href="#Arial-BoldMT-6c" transform="translate(161.083984 0)"/>
       <use xlink:href="#Arial-BoldMT-64" transform="translate(188.867188 0)"/>
      </g>
     </g>
    </g>
    <g id="xtick_3">
     <g id="line2d_5">
      <path d="M 594.246301 398.482188
L 594.246301 23.220937
" clip-path="url(#pd8248ce80b)" style="fill: none; stroke: #cccccc; stroke-width: 0.8; stroke-linecap: round"/>
     </g>
     <g id="line2d_6"/>
     <g id="text_3">
      <!-- Roundtrip -->
      <g style="fill: #262626" transform="translate(565.589738 410.571562) scale(0.12 -0.12)">
       <defs>
        <path id="Arial-BoldMT-52" d="M 469 0
L 469 4581
L 2416 4581
Q 3150 4581 3483 4457
Q 3816 4334 4016 4018
Q 4216 3703 4216 3297
Q 4216 2781 3912 2445
Q 3609 2109 3006 2022
Q 3306 1847 3501 1637
Q 3697 1428 4028 894
L 4588 0
L 3481 0
L 2813 997
Q 2456 1531 2325 1670
Q 2194 1809 2047 1861
Q 1900 1913 1581 1913
L 1394 1913
L 1394 0
L 469 0
z
M 1394 2644
L 2078 2644
Q 2744 2644 2909 2700
Q 3075 2756 3169 2893
Q 3263 3031 3263 3238
Q 3263 3469 3139 3611
Q 3016 3753 2791 3791
Q 2678 3806 2116 3806
L 1394 3806
L 1394 2644
z
" transform="scale(0.015625)"/>
        <path id="Arial-BoldMT-6f" d="M 256 1706
Q 256 2144 472 2553
Q 688 2963 1083 3178
Q 1478 3394 1966 3394
Q 2719 3394 3200 2905
Q 3681 2416 3681 1669
Q 3681 916 3195 420
Q 2709 -75 1972 -75
Q 1516 -75 1102 131
Q 688 338 472 736
Q 256 1134 256 1706
z
M 1156 1659
Q 1156 1166 1390 903
Q 1625 641 1969 641
Q 2313 641 2545 903
Q 2778 1166 2778 1666
Q 2778 2153 2545 2415
Q 2313 2678 1969 2678
Q 1625 2678 1390 2415
Q 1156 2153 1156 1659
z
" transform="scale(0.015625)"/>
        <path id="Arial-BoldMT-6e" d="M 3478 0
L 2600 0
L 2600 1694
Q 2600 2231 2544 2389
Q 2488 2547 2361 2634
Q 2234 2722 2056 2722
Q 1828 2722 1647 2597
Q 1466 2472 1398 2265
Q 1331 2059 1331 1503
L 1331 0
L 453 0
L 453 3319
L 1269 3319
L 1269 2831
Q 1703 3394 2363 3394
Q 2653 3394 2893 3289
Q 3134 3184 3257 3021
Q 3381 2859 3429 2653
Q 3478 2447 3478 2063
L 3478 0
z
" transform="scale(0.015625)"/>
        <path id="Arial-BoldMT-74" d="M 1981 3319
L 1981 2619
L 1381 2619
L 1381 1281
Q 1381 875 1398 808
Q 1416 741 1477 697
Q 1538 653 1625 653
Q 1747 653 1978 738
L 2053 56
Q 1747 -75 1359 -75
Q 1122 -75 931 4
Q 741 84 652 211
Q 563 338 528 553
Q 500 706 500 1172
L 500 2619
L 97 2619
L 97 3319
L 500 3319
L 500 3978
L 1381 4491
L 1381 3319
L 1981 3319
z
" transform="scale(0.015625)"/>
        <path id="Arial-BoldMT-70" d="M 434 3319
L 1253 3319
L 1253 2831
Q 1413 3081 1684 3237
Q 1956 3394 2288 3394
Q 2866 3394 3269 2941
Q 3672 2488 3672 1678
Q 3672 847 3265 386
Q 2859 -75 2281 -75
Q 2006 -75 1782 34
Q 1559 144 1313 409
L 1313 -1263
L 434 -1263
L 434 3319
z
M 1303 1716
Q 1303 1156 1525 889
Q 1747 622 2066 622
Q 2372 622 2575 867
Q 2778 1113 2778 1672
Q 2778 2194 2568 2447
Q 2359 2700 2050 2700
Q 1728 2700 1515 2451
Q 1303 2203 1303 1716
z
" transform="scale(0.015625)"/>
       </defs>
       <use xlink:href="#Arial-BoldMT-52"/>
       <use xlink:href="#Arial-BoldMT-6f" transform="translate(72.216797 0)"/>
       <use xlink:href="#Arial-BoldMT-75" transform="translate(133.300781 0)"/>
       <use xlink:href="#Arial-BoldMT-6e" transform="translate(194.384766 0)"/>
       <use xlink:href="#Arial-BoldMT-64" transform="translate(255.46875 0)"/>
       <use xlink:href="#Arial-BoldMT-74" transform="translate(316.552734 0)"/>
       <use xlink:href="#Arial-BoldMT-72" transform="translate(349.853516 0)"/>
       <use xlink:href="#Arial-BoldMT-69" transform="translate(388.769531 0)"/>
       <use xlink:href="#Arial-BoldMT-70" transform="translate(416.552734 0)"/>
      </g>
     </g>
    </g>
   </g>
   <g id="matplotlib.axis_2">
    <g id="ytick_1">
     <g id="line2d_7">
      <path d="M 45.980625 398.482188
L 701.251875 398.482188
" clip-path="url(#pd8248ce80b)" style="fill: none; stroke: #cccccc; stroke-width: 0.8; stroke-linecap: round"/>
     </g>
     <g id="line2d_8"/>
     <g id="text_4">
      <!-- 0 -->
      <g style="fill: #262626" transform="translate(35.8075 402.776875) scale(0.12 -0.12)">
       <defs>
        <path id="ArialMT-30" d="M 266 2259
Q 266 3072 433 3567
Q 600 4063 929 4331
Q 1259 4600 1759 4600
Q 2128 4600 2406 4451
Q 2684 4303 2865 4023
Q 3047 3744 3150 3342
Q 3253 2941 3253 2259
Q 3253 1453 3087 958
Q 2922 463 2592 192
Q 2263 -78 1759 -78
Q 1097 -78 719 397
Q 266 969 266 2259
z
M 844 2259
Q 844 1131 1108 757
Q 1372 384 1759 384
Q 2147 384 2411 759
Q 2675 1134 2675 2259
Q 2675 3391 2411 3762
Q 2147 4134 1753 4134
Q 1366 4134 1134 3806
Q 844 3388 844 2259
z
" transform="scale(0.015625)"/>
       </defs>
       <use xlink:href="#ArialMT-30"/>
      </g>
     </g>
    </g>
    <g id="ytick_2">
     <g id="line2d_9">
      <path d="M 45.980625 355.838864
L 701.251875 355.838864
" clip-path="url(#pd8248ce80b)" style="fill: none; stroke: #cccccc; stroke-width: 0.8; stroke-linecap: round"/>
     </g>
     <g id="line2d_10"/>
     <g id="text_5">
      <!-- 25 -->
      <g style="fill: #262626" transform="translate(29.134375 360.133551) scale(0.12 -0.12)">
       <defs>
        <path id="ArialMT-32" d="M 3222 541
L 3222 0
L 194 0
Q 188 203 259 391
Q 375 700 629 1000
Q 884 1300 1366 1694
Q 2113 2306 2375 2664
Q 2638 3022 2638 3341
Q 2638 3675 2398 3904
Q 2159 4134 1775 4134
Q 1369 4134 1125 3890
Q 881 3647 878 3216
L 300 3275
Q 359 3922 746 4261
Q 1134 4600 1788 4600
Q 2447 4600 2831 4234
Q 3216 3869 3216 3328
Q 3216 3053 3103 2787
Q 2991 2522 2730 2228
Q 2469 1934 1863 1422
Q 1356 997 1212 845
Q 1069 694 975 541
L 3222 541
z
" transform="scale(0.015625)"/>
        <path id="ArialMT-35" d="M 266 1200
L 856 1250
Q 922 819 1161 601
Q 1400 384 1738 384
Q 2144 384 2425 690
Q 2706 997 2706 1503
Q 2706 1984 2436 2262
Q 2166 2541 1728 2541
Q 1456 2541 1237 2417
Q 1019 2294 894 2097
L 366 2166
L 809 4519
L 3088 4519
L 3088 3981
L 1259 3981
L 1013 2750
Q 1425 3038 1878 3038
Q 2478 3038 2890 2622
Q 3303 2206 3303 1553
Q 3303 931 2941 478
Q 2500 -78 1738 -78
Q 1113 -78 717 272
Q 322 622 266 1200
z
" transform="scale(0.015625)"/>
       </defs>
       <use xlink:href="#ArialMT-32"/>
       <use xlink:href="#ArialMT-35" transform="translate(55.615234 0)"/>
      </g>
     </g>
    </g>
    <g id="ytick_3">
     <g id="line2d_11">
      <path d="M 45.980625 313.19554
L 701.251875 313.19554
" clip-path="url(#pd8248ce80b)" style="fill: none; stroke: #cccccc; stroke-width: 0.8; stroke-linecap: round"/>
     </g>
     <g id="line2d_12"/>
     <g id="text_6">
      <!-- 50 -->
      <g style="fill: #262626" transform="translate(29.134375 317.490227) scale(0.12 -0.12)">
       <use xlink:href="#ArialMT-35"/>
       <use xlink:href="#ArialMT-30" transform="translate(55.615234 0)"/>
      </g>
     </g>
    </g>
    <g id="ytick_4">
     <g id="line2d_13">
      <path d="M 45.980625 270.552216
L 701.251875 270.552216
" clip-path="url(#pd8248ce80b)" style="fill: none; stroke: #cccccc; stroke-width: 0.8; stroke-linecap: round"/>
     </g>
     <g id="line2d_14"/>
     <g id="text_7">
      <!-- 75 -->
      <g style="fill: #262626" transform="translate(29.134375 274.846903) scale(0.12 -0.12)">
       <defs>
        <path id="ArialMT-37" d="M 303 3981
L 303 4522
L 3269 4522
L 3269 4084
Q 2831 3619 2401 2847
Q 1972 2075 1738 1259
Q 1569 684 1522 0
L 944 0
Q 953 541 1156 1306
Q 1359 2072 1739 2783
Q 2119 3494 2547 3981
L 303 3981
z
" transform="scale(0.015625)"/>
       </defs>
       <use xlink:href="#ArialMT-37"/>
       <use xlink:href="#ArialMT-35" transform="translate(55.615234 0)"/>
      </g>
     </g>
    </g>
    <g id="ytick_5">
     <g id="line2d_15">
      <path d="M 45.980625 227.908892
L 701.251875 227.908892
" clip-path="url(#pd8248ce80b)" style="fill: none; stroke: #cccccc; stroke-width: 0.8; stroke-linecap: round"/>
     </g>
     <g id="line2d_16"/>
     <g id="text_8">
      <!-- 100 -->
      <g style="fill: #262626" transform="translate(22.46125 232.20358) scale(0.12 -0.12)">
       <defs>
        <path id="ArialMT-31" d="M 2384 0
L 1822 0
L 1822 3584
Q 1619 3391 1289 3197
Q 959 3003 697 2906
L 697 3450
Q 1169 3672 1522 3987
Q 1875 4303 2022 4600
L 2384 4600
L 2384 0
z
" transform="scale(0.015625)"/>
       </defs>
       <use xlink:href="#ArialMT-31"/>
       <use xlink:href="#ArialMT-30" transform="translate(55.615234 0)"/>
       <use xlink:href="#ArialMT-30" transform="translate(111.230469 0)"/>
      </g>
     </g>
    </g>
    <g id="ytick_6">
     <g id="line2d_17">
      <path d="M 45.980625 185.265568
L 701.251875 185.265568
" clip-path="url(#pd8248ce80b)" style="fill: none; stroke: #cccccc; stroke-width: 0.8; stroke-linecap: round"/>
     </g>
     <g id="line2d_18"/>
     <g id="text_9">
      <!-- 125 -->
      <g style="fill: #262626" transform="translate(22.46125 189.560256) scale(0.12 -0.12)">
       <use xlink:href="#ArialMT-31"/>
       <use xlink:href="#ArialMT-32" transform="translate(55.615234 0)"/>
       <use xlink:href="#ArialMT-35" transform="translate(111.230469 0)"/>
      </g>
     </g>
    </g>
    <g id="ytick_7">
     <g id="line2d_19">
      <path d="M 45.980625 142.622244
L 701.251875 142.622244
" clip-path="url(#pd8248ce80b)" style="fill: none; stroke: #cccccc; stroke-width: 0.8; stroke-linecap: round"/>
     </g>
     <g id="line2d_20"/>
     <g id="text_10">
      <!-- 150 -->
      <g style="fill: #262626" transform="translate(22.46125 146.916932) scale(0.12 -0.12)">
       <use xlink:href="#ArialMT-31"/>
       <use xlink:href="#ArialMT-35" transform="translate(55.615234 0)"/>
       <use xlink:href="#ArialMT-30" transform="translate(111.230469 0)"/>
      </g>
     </g>
    </g>
    <g id="ytick_8">
     <g id="line2d_21">
      <path d="M 45.980625 99.97892
L 701.251875 99.97892
" clip-path="url(#pd8248ce80b)" style="fill: none; stroke: #cccccc; stroke-width: 0.8; stroke-linecap: round"/>
     </g>
     <g id="line2d_22"/>
     <g id="text_11">
      <!-- 175 -->
      <g style="fill: #262626" transform="translate(22.46125 104.273608) scale(0.12 -0.12)">
       <use xlink:href="#ArialMT-31"/>
       <use xlink:href="#ArialMT-37" transform="translate(55.615234 0)"/>
       <use xlink:href="#ArialMT-35" transform="translate(111.230469 0)"/>
      </g>
     </g>
    </g>
    <g id="ytick_9">
     <g id="line2d_23">
      <path d="M 45.980625 57.335597
L 701.251875 57.335597
" clip-path="url(#pd8248ce80b)" style="fill: none; stroke: #cccccc; stroke-width: 0.8; stroke-linecap: round"/>
     </g>
     <g id="line2d_24"/>
     <g id="text_12">
      <!-- 200 -->
      <g style="fill: #262626" transform="translate(22.46125 61.630284) scale(0.12 -0.12)">
       <use xlink:href="#ArialMT-32"/>
       <use xlink:href="#ArialMT-30" transform="translate(55.615234 0)"/>
       <use xlink:href="#ArialMT-30" transform="translate(111.230469 0)"/>
      </g>
     </g>
    </g>
    <g id="text_13">
     <!-- Transactions Per Second (TPS × 1000) -->
     <g style="fill: #262626" transform="translate(15.935625 320.05625) rotate(-90) scale(0.12 -0.12)">
      <defs>
       <path id="Arial-BoldMT-54" d="M 1497 0
L 1497 3806
L 138 3806
L 138 4581
L 3778 4581
L 3778 3806
L 2422 3806
L 2422 0
L 1497 0
z
" transform="scale(0.015625)"/>
       <path id="Arial-BoldMT-63" d="M 3353 2338
L 2488 2181
Q 2444 2441 2289 2572
Q 2134 2703 1888 2703
Q 1559 2703 1364 2476
Q 1169 2250 1169 1719
Q 1169 1128 1367 884
Q 1566 641 1900 641
Q 2150 641 2309 783
Q 2469 925 2534 1272
L 3397 1125
Q 3263 531 2881 228
Q 2500 -75 1859 -75
Q 1131 -75 698 384
Q 266 844 266 1656
Q 266 2478 700 2936
Q 1134 3394 1875 3394
Q 2481 3394 2839 3133
Q 3197 2872 3353 2338
z
" transform="scale(0.015625)"/>
       <path id="Arial-BoldMT-20" transform="scale(0.015625)"/>
       <path id="Arial-BoldMT-53" d="M 231 1491
L 1131 1578
Q 1213 1125 1461 912
Q 1709 700 2131 700
Q 2578 700 2804 889
Q 3031 1078 3031 1331
Q 3031 1494 2936 1608
Q 2841 1722 2603 1806
Q 2441 1863 1863 2006
Q 1119 2191 819 2459
Q 397 2838 397 3381
Q 397 3731 595 4036
Q 794 4341 1167 4500
Q 1541 4659 2069 4659
Q 2931 4659 3367 4281
Q 3803 3903 3825 3272
L 2900 3231
Q 2841 3584 2645 3739
Q 2450 3894 2059 3894
Q 1656 3894 1428 3728
Q 1281 3622 1281 3444
Q 1281 3281 1419 3166
Q 1594 3019 2269 2859
Q 2944 2700 3267 2529
Q 3591 2359 3773 2064
Q 3956 1769 3956 1334
Q 3956 941 3737 597
Q 3519 253 3119 86
Q 2719 -81 2122 -81
Q 1253 -81 787 320
Q 322 722 231 1491
z
" transform="scale(0.015625)"/>
       <path id="Arial-BoldMT-28" d="M 1916 -1347
L 1313 -1347
Q 834 -625 584 153
Q 334 931 334 1659
Q 334 2563 644 3369
Q 913 4069 1325 4659
L 1925 4659
Q 1497 3713 1336 3048
Q 1175 2384 1175 1641
Q 1175 1128 1270 590
Q 1366 53 1531 -431
Q 1641 -750 1916 -1347
z
" transform="scale(0.015625)"/>
       <path id="Arial-BoldMT-d7" d="M 347 1313
L 1291 2256
L 341 3203
L 922 3784
L 1872 2838
L 2816 3781
L 3381 3213
L 2438 2269
L 3391 1316
L 2809 734
L 1856 1688
L 913 744
L 347 1313
z
" transform="scale(0.015625)"/>
       <path id="Arial-BoldMT-31" d="M 2519 0
L 1641 0
L 1641 3309
Q 1159 2859 506 2644
L 506 3441
Q 850 3553 1253 3867
Q 1656 4181 1806 4600
L 2519 4600
L 2519 0
z
" transform="scale(0.015625)"/>
       <path id="Arial-BoldMT-30" d="M 1756 4600
Q 2422 4600 2797 4125
Q 3244 3563 3244 2259
Q 3244 959 2794 391
Q 2422 -78 1756 -78
Q 1088 -78 678 436
Q 269 950 269 2269
Q 269 3563 719 4131
Q 1091 4600 1756 4600
z
M 1756 3872
Q 1597 3872 1472 3770
Q 1347 3669 1278 3406
Q 1188 3066 1188 2259
Q 1188 1453 1269 1151
Q 1350 850 1473 750
Q 1597 650 1756 650
Q 1916 650 2041 751
Q 2166 853 2234 1116
Q 2325 1453 2325 2259
Q 2325 3066 2244 3367
Q 2163 3669 2039 3770
Q 1916 3872 1756 3872
z
" transform="scale(0.015625)"/>
       <path id="Arial-BoldMT-29" d="M 216 -1347
Q 475 -791 581 -494
Q 688 -197 778 190
Q 869 578 912 926
Q 956 1275 956 1641
Q 956 2384 797 3048
Q 638 3713 209 4659
L 806 4659
Q 1278 3988 1539 3234
Q 1800 2481 1800 1706
Q 1800 1053 1594 306
Q 1359 -531 822 -1347
L 216 -1347
z
" transform="scale(0.015625)"/>
      </defs>
      <use xlink:href="#Arial-BoldMT-54"/>
      <use xlink:href="#Arial-BoldMT-72" transform="translate(55.583984 0)"/>
      <use xlink:href="#Arial-BoldMT-61" transform="translate(94.5 0)"/>
      <use xlink:href="#Arial-BoldMT-6e" transform="translate(150.115234 0)"/>
      <use xlink:href="#Arial-BoldMT-73" transform="translate(211.199219 0)"/>
      <use xlink:href="#Arial-BoldMT-61" transform="translate(266.814453 0)"/>
      <use xlink:href="#Arial-BoldMT-63" transform="translate(322.429688 0)"/>
      <use xlink:href="#Arial-BoldMT-74" transform="translate(378.044922 0)"/>
      <use xlink:href="#Arial-BoldMT-69" transform="translate(411.345703 0)"/>
      <use xlink:href="#Arial-BoldMT-6f" transform="translate(439.128906 0)"/>
      <use xlink:href="#Arial-BoldMT-6e" transform="translate(500.212891 0)"/>
      <use xlink:href="#Arial-BoldMT-73" transform="translate(561.296875 0)"/>
      <use xlink:href="#Arial-BoldMT-20" transform="translate(616.912109 0)"/>
      <use xlink:href="#Arial-BoldMT-50" transform="translate(644.695312 0)"/>
      <use xlink:href="#Arial-BoldMT-65" transform="translate(711.394531 0)"/>
      <use xlink:href="#Arial-BoldMT-72" transform="translate(767.009766 0)"/>
      <use xlink:href="#Arial-BoldMT-20" transform="translate(805.925781 0)"/>
      <use xlink:href="#Arial-BoldMT-53" transform="translate(833.708984 0)"/>
      <use xlink:href="#Arial-BoldMT-65" transform="translate(900.408203 0)"/>
      <use xlink:href="#Arial-BoldMT-63" transform="translate(956.023438 0)"/>
      <use xlink:href="#Arial-BoldMT-6f" transform="translate(1011.638672 0)"/>
      <use xlink:href="#Arial-BoldMT-6e" transform="translate(1072.722656 0)"/>
      <use xlink:href="#Arial-BoldMT-64" transform="translate(1133.806641 0)"/>
      <use xlink:href="#Arial-BoldMT-20" transform="translate(1194.890625 0)"/>
      <use xlink:href="#Arial-BoldMT-28" transform="translate(1222.673828 0)"/>
      <use xlink:href="#Arial-BoldMT-54" transform="translate(1255.974609 0)"/>
      <use xlink:href="#Arial-BoldMT-50" transform="translate(1317.058594 0)"/>
      <use xlink:href="#Arial-BoldMT-53" transform="translate(1383.757812 0)"/>
      <use xlink:href="#Arial-BoldMT-20" transform="translate(1450.457031 0)"/>
      <use xlink:href="#Arial-BoldMT-d7" transform="translate(1478.240234 0)"/>
      <use xlink:href="#Arial-BoldMT-20" transform="translate(1536.638672 0)"/>
      <use xlink:href="#Arial-BoldMT-31" transform="translate(1564.421875 0)"/>
      <use xlink:href="#Arial-BoldMT-30" transform="translate(1620.037109 0)"/>
      <use xlink:href="#Arial-BoldMT-30" transform="translate(1675.652344 0)"/>
      <use xlink:href="#Arial-BoldMT-30" transform="translate(1731.267578 0)"/>
      <use xlink:href="#Arial-BoldMT-29" transform="translate(1786.882812 0)"/>
     </g>
    </g>
   </g>
   <g id="patch_3">
    <path d="M 75.765682 398.482188
L 152.986199 398.482188
L 152.986199 219.380227
L 75.765682 219.380227
z
" clip-path="url(#pd8248ce80b)" style="fill: #84cc16; stroke: #65a30d; stroke-width: 1.5; stroke-linejoin: miter"/>
   </g>
   <g id="patch_4">
    <path d="M 296.395732 398.482188
L 373.61625 398.482188
L 373.61625 142.622244
L 296.395732 142.622244
z
" clip-path="url(#pd8248ce80b)" style="fill: #84cc16; stroke: #65a30d; stroke-width: 1.5; stroke-linejoin: miter"/>
   </g>
   <g id="patch_5">
    <path d="M 517.025783 398.482188
L 594.246301 398.482188
L 594.246301 314.901273
L 517.025783 314.901273
z
" clip-path="url(#pd8248ce80b)" style="fill: #84cc16; stroke: #65a30d; stroke-width: 1.5; stroke-linejoin: miter"/>
   </g>
   <g id="patch_6">
    <path d="M 152.986199 398.482188
L 230.206717 398.482188
L 230.206717 88.03879
L 152.986199 88.03879
z
" clip-path="url(#pd8248ce80b)" style="fill: #a3e635; stroke: #65a30d; stroke-width: 1.5; stroke-linejoin: miter"/>
   </g>
   <g id="patch_7">
    <path d="M 373.61625 398.482188
L 450.836768 398.482188
L 450.836768 142.622244
L 373.61625 142.622244
z
" clip-path="url(#pd8248ce80b)" style="fill: #a3e635; stroke: #65a30d; stroke-width: 1.5; stroke-linejoin: miter"/>
   </g>
   <g id="patch_8">
    <path d="M 594.246301 398.482188
L 671.466818 398.482188
L 671.466818 291.021011
L 594.246301 291.021011
z
" clip-path="url(#pd8248ce80b)" style="fill: #a3e635; stroke: #65a30d; stroke-width: 1.5; stroke-linejoin: miter"/>
   </g>
   <g id="patch_9">
    <path d="M 45.980625 398.482188
L 45.980625 23.220938
" style="fill: none; stroke: #cccccc; stroke-linejoin: miter; stroke-linecap: square"/>
   </g>
   <g id="patch_10">
    <path d="M 45.980625 398.482188
L 701.251875 398.482188
" style="fill: none; stroke: #cccccc; stroke-linejoin: miter; stroke-linecap: square"/>
   </g>
   <g id="text_14">
    <!-- 105k -->
    <g style="fill: #262626" transform="translate(101.029691 214.012102) scale(0.12 -0.12)">
     <defs>
      <path id="Arial-BoldMT-35" d="M 284 1178
L 1159 1269
Q 1197 972 1381 798
Q 1566 625 1806 625
Q 2081 625 2272 848
Q 2463 1072 2463 1522
Q 2463 1944 2273 2155
Q 2084 2366 1781 2366
Q 1403 2366 1103 2031
L 391 2134
L 841 4519
L 3163 4519
L 3163 3697
L 1506 3697
L 1369 2919
Q 1663 3066 1969 3066
Q 2553 3066 2959 2641
Q 3366 2216 3366 1538
Q 3366 972 3038 528
Q 2591 -78 1797 -78
Q 1163 -78 763 262
Q 363 603 284 1178
z
" transform="scale(0.015625)"/>
      <path id="Arial-BoldMT-6b" d="M 428 0
L 428 4581
L 1306 4581
L 1306 2150
L 2334 3319
L 3416 3319
L 2281 2106
L 3497 0
L 2550 0
L 1716 1491
L 1306 1063
L 1306 0
L 428 0
z
" transform="scale(0.015625)"/>
     </defs>
     <use xlink:href="#Arial-BoldMT-31"/>
     <use xlink:href="#Arial-BoldMT-30" transform="translate(55.615234 0)"/>
     <use xlink:href="#Arial-BoldMT-35" transform="translate(111.230469 0)"/>
     <use xlink:href="#Arial-BoldMT-6b" transform="translate(166.845703 0)"/>
    </g>
   </g>
   <g id="text_15">
    <!-- 150k -->
    <g style="fill: #262626" transform="translate(321.659741 137.254119) scale(0.12 -0.12)">
     <use xlink:href="#Arial-BoldMT-31"/>
     <use xlink:href="#Arial-BoldMT-35" transform="translate(55.615234 0)"/>
     <use xlink:href="#Arial-BoldMT-30" transform="translate(111.230469 0)"/>
     <use xlink:href="#Arial-BoldMT-6b" transform="translate(166.845703 0)"/>
    </g>
   </g>
   <g id="text_16">
    <!-- 49k -->
    <g style="fill: #262626" transform="translate(545.626354 309.533148) scale(0.12 -0.12)">
     <defs>
      <path id="Arial-BoldMT-34" d="M 1994 0
L 1994 922
L 119 922
L 119 1691
L 2106 4600
L 2844 4600
L 2844 1694
L 3413 1694
L 3413 922
L 2844 922
L 2844 0
L 1994 0
z
M 1994 1694
L 1994 3259
L 941 1694
L 1994 1694
z
" transform="scale(0.015625)"/>
      <path id="Arial-BoldMT-39" d="M 291 1059
L 1141 1153
Q 1172 894 1303 769
Q 1434 644 1650 644
Q 1922 644 2112 894
Q 2303 1144 2356 1931
Q 2025 1547 1528 1547
Q 988 1547 595 1964
Q 203 2381 203 3050
Q 203 3747 617 4173
Q 1031 4600 1672 4600
Q 2369 4600 2816 4061
Q 3263 3522 3263 2288
Q 3263 1031 2797 475
Q 2331 -81 1584 -81
Q 1047 -81 715 205
Q 384 491 291 1059
z
M 2278 2978
Q 2278 3403 2083 3637
Q 1888 3872 1631 3872
Q 1388 3872 1227 3680
Q 1066 3488 1066 3050
Q 1066 2606 1241 2398
Q 1416 2191 1678 2191
Q 1931 2191 2104 2391
Q 2278 2591 2278 2978
z
" transform="scale(0.015625)"/>
     </defs>
     <use xlink:href="#Arial-BoldMT-34"/>
     <use xlink:href="#Arial-BoldMT-39" transform="translate(55.615234 0)"/>
     <use xlink:href="#Arial-BoldMT-6b" transform="translate(111.230469 0)"/>
    </g>
   </g>
   <g id="text_17">
    <!-- 182k -->
    <g style="fill: #262626" transform="translate(178.250208 82.670665) scale(0.12 -0.12)">
     <defs>
      <path id="Arial-BoldMT-38" d="M 1025 2472
Q 684 2616 529 2867
Q 375 3119 375 3419
Q 375 3931 733 4265
Q 1091 4600 1750 4600
Q 2403 4600 2764 4265
Q 3125 3931 3125 3419
Q 3125 3100 2959 2851
Q 2794 2603 2494 2472
Q 2875 2319 3073 2025
Q 3272 1731 3272 1347
Q 3272 713 2867 316
Q 2463 -81 1791 -81
Q 1166 -81 750 247
Q 259 634 259 1309
Q 259 1681 443 1992
Q 628 2303 1025 2472
z
M 1206 3356
Q 1206 3094 1354 2947
Q 1503 2800 1750 2800
Q 2000 2800 2150 2948
Q 2300 3097 2300 3359
Q 2300 3606 2151 3754
Q 2003 3903 1759 3903
Q 1506 3903 1356 3753
Q 1206 3603 1206 3356
z
M 1125 1394
Q 1125 1031 1311 828
Q 1497 625 1775 625
Q 2047 625 2225 820
Q 2403 1016 2403 1384
Q 2403 1706 2222 1901
Q 2041 2097 1763 2097
Q 1441 2097 1283 1875
Q 1125 1653 1125 1394
z
" transform="scale(0.015625)"/>
      <path id="Arial-BoldMT-32" d="M 3238 816
L 3238 0
L 159 0
Q 209 463 459 877
Q 709 1291 1447 1975
Q 2041 2528 2175 2725
Q 2356 2997 2356 3263
Q 2356 3556 2198 3714
Q 2041 3872 1763 3872
Q 1488 3872 1325 3706
Q 1163 3541 1138 3156
L 263 3244
Q 341 3969 753 4284
Q 1166 4600 1784 4600
Q 2463 4600 2850 4234
Q 3238 3869 3238 3325
Q 3238 3016 3127 2736
Q 3016 2456 2775 2150
Q 2616 1947 2200 1565
Q 1784 1184 1673 1059
Q 1563 934 1494 816
L 3238 816
z
" transform="scale(0.015625)"/>
     </defs>
     <use xlink:href="#Arial-BoldMT-31"/>
     <use xlink:href="#Arial-BoldMT-38" transform="translate(55.615234 0)"/>
     <use xlink:href="#Arial-BoldMT-32" transform="translate(111.230469 0)"/>
     <use xlink:href="#Arial-BoldMT-6b" transform="translate(166.845703 0)"/>
    </g>
   </g>
   <g id="text_18">
    <!-- 150k -->
    <g style="fill: #262626" transform="translate(398.880259 137.254119) scale(0.12 -0.12)">
     <use xlink:href="#Arial-BoldMT-31"/>
     <use xlink:href="#Arial-BoldMT-35" transform="translate(55.615234 0)"/>
     <use xlink:href="#Arial-BoldMT-30" transform="translate(111.230469 0)"/>
     <use xlink:href="#Arial-BoldMT-6b" transform="translate(166.845703 0)"/>
    </g>
   </g>
   <g id="text_19">
    <!-- 63k -->
    <g style="fill: #262626" transform="translate(622.846872 285.652886) scale(0.12 -0.12)">
     <defs>
      <path id="Arial-BoldMT-36" d="M 3247 3459
L 2397 3366
Q 2366 3628 2234 3753
Q 2103 3878 1894 3878
Q 1616 3878 1423 3628
Q 1231 3378 1181 2588
Q 1509 2975 1997 2975
Q 2547 2975 2939 2556
Q 3331 2138 3331 1475
Q 3331 772 2918 347
Q 2506 -78 1859 -78
Q 1166 -78 719 461
Q 272 1000 272 2228
Q 272 3488 737 4044
Q 1203 4600 1947 4600
Q 2469 4600 2811 4308
Q 3153 4016 3247 3459
z
M 1256 1544
Q 1256 1116 1453 883
Q 1650 650 1903 650
Q 2147 650 2309 840
Q 2472 1031 2472 1466
Q 2472 1913 2297 2120
Q 2122 2328 1859 2328
Q 1606 2328 1431 2129
Q 1256 1931 1256 1544
z
" transform="scale(0.015625)"/>
      <path id="Arial-BoldMT-33" d="M 241 1216
L 1091 1319
Q 1131 994 1309 822
Q 1488 650 1741 650
Q 2013 650 2198 856
Q 2384 1063 2384 1413
Q 2384 1744 2206 1937
Q 2028 2131 1772 2131
Q 1603 2131 1369 2066
L 1466 2781
Q 1822 2772 2009 2936
Q 2197 3100 2197 3372
Q 2197 3603 2059 3740
Q 1922 3878 1694 3878
Q 1469 3878 1309 3722
Q 1150 3566 1116 3266
L 306 3403
Q 391 3819 561 4067
Q 731 4316 1036 4458
Q 1341 4600 1719 4600
Q 2366 4600 2756 4188
Q 3078 3850 3078 3425
Q 3078 2822 2419 2463
Q 2813 2378 3048 2084
Q 3284 1791 3284 1375
Q 3284 772 2843 347
Q 2403 -78 1747 -78
Q 1125 -78 715 280
Q 306 638 241 1216
z
" transform="scale(0.015625)"/>
     </defs>
     <use xlink:href="#Arial-BoldMT-36"/>
     <use xlink:href="#Arial-BoldMT-33" transform="translate(55.615234 0)"/>
     <use xlink:href="#Arial-BoldMT-6b" transform="translate(111.230469 0)"/>
    </g>
   </g>
   <g id="text_20">
    <!-- ISO8583 Simulator Performance -->
    <g style="fill: #262626" transform="translate(267.020469 17.220937) scale(0.14 -0.14)">
     <defs>
      <path id="Arial-BoldMT-49" d="M 438 0
L 438 4581
L 1363 4581
L 1363 0
L 438 0
z
" transform="scale(0.015625)"/>
      <path id="Arial-BoldMT-4f" d="M 278 2263
Q 278 2963 488 3438
Q 644 3788 914 4066
Q 1184 4344 1506 4478
Q 1934 4659 2494 4659
Q 3506 4659 4114 4031
Q 4722 3403 4722 2284
Q 4722 1175 4119 548
Q 3516 -78 2506 -78
Q 1484 -78 881 545
Q 278 1169 278 2263
z
M 1231 2294
Q 1231 1516 1590 1114
Q 1950 713 2503 713
Q 3056 713 3411 1111
Q 3766 1509 3766 2306
Q 3766 3094 3420 3481
Q 3075 3869 2503 3869
Q 1931 3869 1581 3476
Q 1231 3084 1231 2294
z
" transform="scale(0.015625)"/>
      <path id="Arial-BoldMT-6d" d="M 394 3319
L 1203 3319
L 1203 2866
Q 1638 3394 2238 3394
Q 2556 3394 2790 3262
Q 3025 3131 3175 2866
Q 3394 3131 3647 3262
Q 3900 3394 4188 3394
Q 4553 3394 4806 3245
Q 5059 3097 5184 2809
Q 5275 2597 5275 2122
L 5275 0
L 4397 0
L 4397 1897
Q 4397 2391 4306 2534
Q 4184 2722 3931 2722
Q 3747 2722 3584 2609
Q 3422 2497 3350 2280
Q 3278 2063 3278 1594
L 3278 0
L 2400 0
L 2400 1819
Q 2400 2303 2353 2443
Q 2306 2584 2207 2653
Q 2109 2722 1941 2722
Q 1738 2722 1575 2612
Q 1413 2503 1342 2297
Q 1272 2091 1272 1613
L 1272 0
L 394 0
L 394 3319
z
" transform="scale(0.015625)"/>
      <path id="Arial-BoldMT-66" d="M 75 3319
L 563 3319
L 563 3569
Q 563 3988 652 4194
Q 741 4400 980 4529
Q 1219 4659 1584 4659
Q 1959 4659 2319 4547
L 2200 3934
Q 1991 3984 1797 3984
Q 1606 3984 1523 3895
Q 1441 3806 1441 3553
L 1441 3319
L 2097 3319
L 2097 2628
L 1441 2628
L 1441 0
L 563 0
L 563 2628
L 75 2628
L 75 3319
z
" transform="scale(0.015625)"/>
     </defs>
     <use xlink:href="#Arial-BoldMT-49"/>
     <use xlink:href="#Arial-BoldMT-53" transform="translate(27.783203 0)"/>
     <use xlink:href="#Arial-BoldMT-4f" transform="translate(94.482422 0)"/>
     <use xlink:href="#Arial-BoldMT-38" transform="translate(172.265625 0)"/>
     <use xlink:href="#Arial-BoldMT-35" transform="translate(227.880859 0)"/>
     <use xlink:href="#Arial-BoldMT-38" transform="translate(283.496094 0)"/>
     <use xlink:href="#Arial-BoldMT-33" transform="translate(339.111328 0)"/>
     <use xlink:href="#Arial-BoldMT-20" transform="translate(394.726562 0)"/>
     <use xlink:href="#Arial-BoldMT-53" transform="translate(422.509766 0)"/>
     <use xlink:href="#Arial-BoldMT-69" transform="translate(489.208984 0)"/>
     <use xlink:href="#Arial-BoldMT-6d" transform="translate(516.992188 0)"/>
     <use xlink:href="#Arial-BoldMT-75" transform="translate(605.908203 0)"/>
     <use xlink:href="#Arial-BoldMT-6c" transform="translate(666.992188 0)"/>
     <use xlink:href="#Arial-BoldMT-61" transform="translate(694.775391 0)"/>
     <use xlink:href="#Arial-BoldMT-74" transform="translate(750.390625 0)"/>
     <use xlink:href="#Arial-BoldMT-6f" transform="translate(783.691406 0)"/>
     <use xlink:href="#Arial-BoldMT-72" transform="translate(844.775391 0)"/>
     <use xlink:href="#Arial-BoldMT-20" transform="translate(883.691406 0)"/>
     <use xlink:href="#Arial-BoldMT-50" transform="translate(911.474609 0)"/>
     <use xlink:href="#Arial-BoldMT-65" transform="translate(978.173828 0)"/>
     <use xlink:href="#Arial-BoldMT-72" transform="translate(1033.789062 0)"/>
     <use xlink:href="#Arial-BoldMT-66" transform="translate(1072.705078 0)"/>
     <use xlink:href="#Arial-BoldMT-6f" transform="translate(1106.005859 0)"/>
     <use xlink:href="#Arial-BoldMT-72" transform="translate(1167.089844 0)"/>
     <use xlink:href="#Arial-BoldMT-6d" transform="translate(1206.005859 0)"/>
     <use xlink:href="#Arial-BoldMT-61" transform="translate(1294.921875 0)"/>
     <use xlink:href="#Arial-BoldMT-6e" transform="translate(1350.537109 0)"/>
     <use xlink:href="#Arial-BoldMT-63" transform="translate(1411.621094 0)"/>
     <use xlink:href="#Arial-BoldMT-65" transform="translate(1467.236328 0)"/>
    </g>
   </g>
   <g id="legend_1">
    <g id="patch_11">
     <path d="M 590.814375 42.610312
L 614.814375 42.610312
L 614.814375 34.210312
L 590.814375 34.210312
z
" style="fill: #84cc16; stroke: #65a30d; stroke-width: 1.5; stroke-linejoin: miter"/>
    </g>
    <g id="text_21">
     <!-- Pure Python -->
     <g style="fill: #262626" transform="translate(624.414375 42.610312) scale(0.12 -0.12)">
      <defs>
       <path id="ArialMT-50" d="M 494 0
L 494 4581
L 2222 4581
Q 2678 4581 2919 4538
Q 3256 4481 3484 4323
Q 3713 4166 3852 3881
Q 3991 3597 3991 3256
Q 3991 2672 3619 2267
Q 3247 1863 2275 1863
L 1100 1863
L 1100 0
L 494 0
z
M 1100 2403
L 2284 2403
Q 2872 2403 3119 2622
Q 3366 2841 3366 3238
Q 3366 3525 3220 3729
Q 3075 3934 2838 4000
Q 2684 4041 2272 4041
L 1100 4041
L 1100 2403
z
" transform="scale(0.015625)"/>
       <path id="ArialMT-75" d="M 2597 0
L 2597 488
Q 2209 -75 1544 -75
Q 1250 -75 995 37
Q 741 150 617 320
Q 494 491 444 738
Q 409 903 409 1263
L 409 3319
L 972 3319
L 972 1478
Q 972 1038 1006 884
Q 1059 663 1231 536
Q 1403 409 1656 409
Q 1909 409 2131 539
Q 2353 669 2445 892
Q 2538 1116 2538 1541
L 2538 3319
L 3100 3319
L 3100 0
L 2597 0
z
" transform="scale(0.015625)"/>
       <path id="ArialMT-72" d="M 416 0
L 416 3319
L 922 3319
L 922 2816
Q 1116 3169 1280 3281
Q 1444 3394 1641 3394
Q 1925 3394 2219 3213
L 2025 2691
Q 1819 2813 1613 2813
Q 1428 2813 1281 2702
Q 1134 2591 1072 2394
Q 978 2094 978 1738
L 978 0
L 416 0
z
" transform="scale(0.015625)"/>
       <path id="ArialMT-65" d="M 2694 1069
L 3275 997
Q 3138 488 2766 206
Q 2394 -75 1816 -75
Q 1088 -75 661 373
Q 234 822 234 1631
Q 234 2469 665 2931
Q 1097 3394 1784 3394
Q 2450 3394 2872 2941
Q 3294 2488 3294 1666
Q 3294 1616 3291 1516
L 816 1516
Q 847 969 1125 678
Q 1403 388 1819 388
Q 2128 388 2347 550
Q 2566 713 2694 1069
z
M 847 1978
L 2700 1978
Q 2663 2397 2488 2606
Q 2219 2931 1791 2931
Q 1403 2931 1139 2672
Q 875 2413 847 1978
z
" transform="scale(0.015625)"/>
       <path id="ArialMT-20" transform="scale(0.015625)"/>
       <path id="ArialMT-79" d="M 397 -1278
L 334 -750
Q 519 -800 656 -800
Q 844 -800 956 -737
Q 1069 -675 1141 -563
Q 1194 -478 1313 -144
Q 1328 -97 1363 -6
L 103 3319
L 709 3319
L 1400 1397
Q 1534 1031 1641 628
Q 1738 1016 1872 1384
L 2581 3319
L 3144 3319
L 1881 -56
Q 1678 -603 1566 -809
Q 1416 -1088 1222 -1217
Q 1028 -1347 759 -1347
Q 597 -1347 397 -1278
z
" transform="scale(0.015625)"/>
       <path id="ArialMT-74" d="M 1650 503
L 1731 6
Q 1494 -44 1306 -44
Q 1000 -44 831 53
Q 663 150 594 308
Q 525 466 525 972
L 525 2881
L 113 2881
L 113 3319
L 525 3319
L 525 4141
L 1084 4478
L 1084 3319
L 1650 3319
L 1650 2881
L 1084 2881
L 1084 941
Q 1084 700 1114 631
Q 1144 563 1211 522
Q 1278 481 1403 481
Q 1497 481 1650 503
z
" transform="scale(0.015625)"/>
       <path id="ArialMT-68" d="M 422 0
L 422 4581
L 984 4581
L 984 2938
Q 1378 3394 1978 3394
Q 2347 3394 2619 3248
Q 2891 3103 3008 2847
Q 3125 2591 3125 2103
L 3125 0
L 2563 0
L 2563 2103
Q 2563 2525 2380 2717
Q 2197 2909 1863 2909
Q 1613 2909 1392 2779
Q 1172 2650 1078 2428
Q 984 2206 984 1816
L 984 0
L 422 0
z
" transform="scale(0.015625)"/>
       <path id="ArialMT-6f" d="M 213 1659
Q 213 2581 725 3025
Q 1153 3394 1769 3394
Q 2453 3394 2887 2945
Q 3322 2497 3322 1706
Q 3322 1066 3130 698
Q 2938 331 2570 128
Q 2203 -75 1769 -75
Q 1072 -75 642 372
Q 213 819 213 1659
z
M 791 1659
Q 791 1022 1069 705
Q 1347 388 1769 388
Q 2188 388 2466 706
Q 2744 1025 2744 1678
Q 2744 2294 2464 2611
Q 2184 2928 1769 2928
Q 1347 2928 1069 2612
Q 791 2297 791 1659
z
" transform="scale(0.015625)"/>
       <path id="ArialMT-6e" d="M 422 0
L 422 3319
L 928 3319
L 928 2847
Q 1294 3394 1984 3394
Q 2284 3394 2536 3286
Q 2788 3178 2913 3003
Q 3038 2828 3088 2588
Q 3119 2431 3119 2041
L 3119 0
L 2556 0
L 2556 2019
Q 2556 2363 2490 2533
Q 2425 2703 2258 2804
Q 2091 2906 1866 2906
Q 1506 2906 1245 2678
Q 984 2450 984 1813
L 984 0
L 422 0
z
" transform="scale(0.015625)"/>
      </defs>
      <use xlink:href="#ArialMT-50"/>
      <use xlink:href="#ArialMT-75" transform="translate(66.699219 0)"/>
      <use xlink:href="#ArialMT-72" transform="translate(122.314453 0)"/>
      <use xlink:href="#ArialMT-65" transform="translate(155.615234 0)"/>
      <use xlink:href="#ArialMT-20" transform="translate(211.230469 0)"/>
      <use xlink:href="#ArialMT-50" transform="translate(239.013672 0)"/>
      <use xlink:href="#ArialMT-79" transform="translate(305.712891 0)"/>
      <use xlink:href="#ArialMT-74" transform="translate(355.712891 0)"/>
      <use xlink:href="#ArialMT-68" transform="translate(383.496094 0)"/>
      <use xlink:href="#ArialMT-6f" transform="translate(439.111328 0)"/>
      <use xlink:href="#ArialMT-6e" transform="translate(494.726562 0)"/>
     </g>
    </g>
    <g id="patch_12">
     <path d="M 590.814375 59.871562
L 614.814375 59.871562
L 614.814375 51.471562
L 590.814375 51.471562
z
" style="fill: #a3e635; stroke: #65a30d; stroke-width: 1.5; stroke-linejoin: miter"/>
    </g>
    <g id="text_22">
     <!-- With Cython -->
     <g style="fill: #262626" transform="translate(624.414375 59.871562) scale(0.12 -0.12)">
      <defs>
       <path id="ArialMT-57" d="M 1294 0
L 78 4581
L 700 4581
L 1397 1578
Q 1509 1106 1591 641
Q 1766 1375 1797 1488
L 2669 4581
L 3400 4581
L 4056 2263
Q 4303 1400 4413 641
Q 4500 1075 4641 1638
L 5359 4581
L 5969 4581
L 4713 0
L 4128 0
L 3163 3491
Q 3041 3928 3019 4028
Q 2947 3713 2884 3491
L 1913 0
L 1294 0
z
" transform="scale(0.015625)"/>
       <path id="ArialMT-69" d="M 425 3934
L 425 4581
L 988 4581
L 988 3934
L 425 3934
z
M 425 0
L 425 3319
L 988 3319
L 988 0
L 425 0
z
" transform="scale(0.015625)"/>
       <path id="ArialMT-43" d="M 3763 1606
L 4369 1453
Q 4178 706 3683 314
Q 3188 -78 2472 -78
Q 1731 -78 1267 223
Q 803 525 561 1097
Q 319 1669 319 2325
Q 319 3041 592 3573
Q 866 4106 1370 4382
Q 1875 4659 2481 4659
Q 3169 4659 3637 4309
Q 4106 3959 4291 3325
L 3694 3184
Q 3534 3684 3231 3912
Q 2928 4141 2469 4141
Q 1941 4141 1586 3887
Q 1231 3634 1087 3207
Q 944 2781 944 2328
Q 944 1744 1114 1308
Q 1284 872 1643 656
Q 2003 441 2422 441
Q 2931 441 3284 734
Q 3638 1028 3763 1606
z
" transform="scale(0.015625)"/>
      </defs>
      <use xlink:href="#ArialMT-57"/>
      <use xlink:href="#ArialMT-69" transform="translate(94.384766 0)"/>
      <use xlink:href="#ArialMT-74" transform="translate(116.601562 0)"/>
      <use xlink:href="#ArialMT-68" transform="translate(144.384766 0)"/>
      <use xlink:href="#ArialMT-20" transform="translate(200 0)"/>
      <use xlink:href="#ArialMT-43" transform="translate(227.783203 0)"/>
      <use xlink:href="#ArialMT-79" transform="translate(300 0)"/>
      <use xlink:href="#ArialMT-74" transform="translate(350 0)"/>
      <use xlink:href="#ArialMT-68" transform="translate(377.783203 0)"/>
      <use xlink:href="#ArialMT-6f" transform="translate(433.398438 0)"/>
      <use xlink:href="#ArialMT-6e" transform="translate(489.013672 0)"/>
     </g>
    </g>
   </g>
  </g>
 </g>
 <defs>
  <clipPath id="pd8248ce80b">
   <rect x="45.980625" y="23.220937" width="655.27125" height="375.26125"/>
  </clipPath>
 </defs>
</svg>
